<svg xmlns="http://www.w3.org/2000/svg" width="256" height="256"><path fill-opacity=".016" d="M0 128.004v128.004l128.25-.254 128.25-.254.254-127.75L257.008 0H0v128.004m.485.496c0 70.4.119 99.053.265 63.672.146-35.38.146-92.98 0-128C.604 29.153.485 58.1.485 128.5" fill="#1976D2" fill-rule="evenodd"/><path fill-opacity=".374" d="M102 53.835 76.5 68.607l-.305 5.946c-.168 3.271-.73 6.374-1.25 6.897-.52.523-.945 4.941-.945 9.82 0 8.626.062 8.86 2.25 8.55 2.102-.299 2.269-.873 2.543-8.734.188-5.399-.106-8.661-.819-9.102-.612-.378-.969-2.278-.793-4.221l.319-3.533L90 80.87l12.5 6.641.299 7.493c.164 4.122.637 7.832 1.051 8.246.414.414 6.129 1.475 12.701 2.357 11.938 1.603 15.361 1.48 34.699-1.253l3.75-.53V88.267l13.25-6.796c13.092-6.715 14.705-7.828 14.735-10.165.019-1.519-51.168-32.317-53.641-32.274-1.014.018-13.319 6.679-27.344 14.803m-41.545 54.62c-2.883 2.882-3.157 6.516-.705 9.334 1.055 1.212 8.487 4.278 18.703 7.717 15.312 5.153 30.315 11.084 42.353 16.743 3.677 1.728 4.528 1.834 5.274.656 1.602-2.53.987-3.693-4.33-8.196-12.512-10.596-27.727-19.253-44.527-25.335-11.115-4.023-13.532-4.156-16.768-.919m122.045.413c-16.916 5.919-30.938 13.691-44.793 24.827-5.67 4.558-6.682 5.819-6.126 7.633.367 1.194.772 2.294.899 2.444.127.15 6.933-2.609 15.125-6.131 8.192-3.522 22.545-8.977 31.895-12.122 17.476-5.879 20.5-7.675 20.5-12.175 0-3.091-4.202-7.355-7.205-7.31-1.262.019-5.895 1.294-10.295 2.834M26.898 127.284c-4.198 2.821-5.836 8.037-3.953 12.584 2.207 5.329 4.875 6.252 20.929 7.244 22.489 1.39 50.043 5.006 75.012 9.844 7.934 1.538 8.114 1.483 8.114-2.433 0-4.311-.903-4.941-17.156-11.964-20.16-8.712-39.414-13.787-62.818-16.556-12.846-1.52-16.286-1.302-20.128 1.281M207 126.423c-24.5 3.328-46.027 9.75-66.952 19.972-8.186 3.999-9.01 4.807-9.033 8.855-.018 3.236.388 3.288 10.277 1.305 22.404-4.493 49.5-8.019 73.108-9.515 15.483-.982 18.3-1.891 20.446-6.601 1.954-4.29 1.38-8.154-1.729-11.634-2.664-2.982-3.403-3.243-9.75-3.45-3.777-.122-11.142.358-16.367 1.068M83.217 168.115c-1.155.428-2.859 1.935-3.786 3.351-2.447 3.734-1.323 8.426 4.016 16.771 4.731 7.394 5.362 9.554 3.377 11.539-1.654 1.654-3.824-.335-3.824-3.505 0-1.855-.401-2.331-1.582-1.878-.87.334-1.995.607-2.5.607-.505 0-.918 1.557-.918 3.461 0 6.831 8.184 10.165 12.826 5.225 3.719-3.96 2.985-9.717-2.326-18.238C83.942 178.135 82.697 173 85.481 173c.814 0 1.763 1.125 2.108 2.5.451 1.795 1.302 2.5 3.019 2.5 1.948 0 2.392-.515 2.392-2.777 0-5.501-4.766-8.964-9.783-7.108m26.678.25c-4.063 2.026-4.864 5.186-4.88 19.25-.013 11.767.198 13.386 2.058 15.75 2.122 2.698 6.243 3.551 7.481 1.548.484-.783.976-.783 1.759 0 2.911 2.911 3.687 1.142 3.687-8.413V187h-4c-3.293 0-4 .343-4 1.941 0 1.068.45 2.219 1 2.559 1.528.944 1.289 9.763-.25 9.25-1.735-.578-1.793-26.902-.061-27.48.769-.256 1.3 1.131 1.5 3.917.278 3.851.579 4.313 2.811 4.313 2.223 0 2.534-.467 2.806-4.212.168-2.316-.16-5.081-.729-6.145-1.498-2.799-6.254-4.238-9.182-2.778M96 187v19h6v-38h-6v19m28 0v19h13v-3c0-2.762-.278-3-3.5-3H130v-5c0-4.7.154-5 2.563-5 2.29 0 2.53-.347 2.25-3.25-.24-2.491-.838-3.325-2.563-3.57-1.947-.276-2.25-.916-2.25-4.75 0-4.396.027-4.43 3.5-4.43 3.222 0 3.5-.238 3.5-3v-3h-13v19m16 0v19h5l.125-11.25.126-11.25 1.404 9c1.969 12.618 2.264 13.694 3.626 13.24.687-.229 1.915-4.895 2.848-10.821l1.641-10.419.115 10.816.115 10.817 2.75-.317 2.75-.316v-37l-3.562-.299-3.562-.299-1.307 8.049c-.719 4.427-1.703 8.049-2.188 8.049-.485 0-.881-.985-.881-2.19 0-1.204-.54-4.804-1.2-8-1.17-5.664-1.283-5.81-4.5-5.81H140v19m25.72-.795c-1.529 10.062-2.766 18.662-2.75 19.111.017.449 1.268.674 2.78.5 2.388-.274 2.791-.81 3.06-4.066.281-3.393.585-3.75 3.19-3.75s2.909.357 3.19 3.75c.269 3.256.672 3.792 3.06 4.066 3.382.39 3.385 1.376-.055-20.316l-2.695-17-3.5-.295-3.5-.295-2.78 18.295m5.28-.787c0 1.88-.273 4.13-.607 5-.441 1.149-.001 1.582 1.607 1.582 1.608 0 2.048-.433 1.607-1.582-.334-.87-.607-3.12-.607-5s-.45-3.418-1-3.418-1 1.538-1 3.418" fill="#1976D2" fill-rule="evenodd"/><path fill-opacity=".408" d="M103.5 53.595c-13.75 8.002-25.525 15.079-26.167 15.727-1.332 1.344-3.276 29.595-2.088 30.329.415.257 1.271.148 1.902-.242.819-.506.966-4.262.517-13.136-.389-7.675-.268-12.303.317-12.101.521.181 6.58 3.253 13.465 6.828l12.519 6.5.017 8.033.018 8.033 10.25 1.218c16.63 1.974 14.75 4.05 14.75-16.284 0-9.625.338-17.487.75-17.471.412.016 6.15 2.001 12.75 4.411l12 4.382.31 3.589c.171 1.974.515 3.589.765 3.589.249 0 6.297-2.928 13.439-6.507 9.937-4.98 12.986-6.962 12.986-8.444 0-1.465-6.305-5.723-25.906-17.493-14.249-8.556-26.286-15.546-26.75-15.533-.464.013-12.094 6.57-25.844 14.572m-40.606 53.519c-3.61 1.325-5.347 5.378-3.851 8.989 1.007 2.433 2.706 3.288 13.803 6.947 14.898 4.913 32.316 11.667 44.044 17.079 4.614 2.129 8.552 3.871 8.75 3.871.198 0 .36-1.284.36-2.852 0-2.288-1.139-3.738-5.75-7.323-12.528-9.74-23.22-16.111-35.704-21.275-6.461-2.673-18.663-6.833-18.978-6.471-.037.043-1.24.509-2.674 1.035m115.266 3.885c-13.516 5.147-25.011 11.485-36.69 20.229-7.243 5.423-9.47 7.642-9.47 9.432 0 1.287.444 2.34.986 2.34.543 0 7.18-2.639 14.75-5.864 15.262-6.503 25.959-10.511 40.412-15.14 8.356-2.677 9.808-3.474 10.834-5.953 1.223-2.952.183-6.565-2.382-8.278-2.401-1.603-8.581-.52-18.44 3.234M25.7 128.573c-3.413 3.412-4.233 7.496-2.269 11.293 2.297 4.443 5.333 6.132 11.042 6.146 13.537.032 48.915 4.188 73.527 8.638 18.896 3.417 18.435 3.412 18.805.216.406-3.504-2.343-5.568-14.547-10.921C86.858 132.805 58.373 126 37.143 126c-8.195 0-9.066.196-11.443 2.573m174.006-.528c-21.334 3.652-42.194 10.215-59.706 18.785-7.227 3.536-7.511 3.81-7.816 7.508-.273 3.321-.071 3.761 1.5 3.267 8.997-2.831 51.877-8.958 74.316-10.618 21.869-1.618 22.683-1.769 24.931-4.627 1.093-1.389 2.263-3.395 2.6-4.458.914-2.879-1.298-8.519-4.046-10.32-3.291-2.156-17.708-1.947-31.779.463M80.884 170.116c-3.357 3.357-2.219 10.195 3.037 18.263 4.678 7.18 5.322 12.121 1.579 12.121-1.438 0-2.089-.772-2.316-2.75-.254-2.203-.827-2.75-2.881-2.75-2.385 0-2.524.252-1.982 3.589.828 5.106 2.29 6.411 7.179 6.411 5.352 0 7-1.862 7-7.906 0-3.778-.848-5.925-4.75-12.024-4.922-7.692-5.572-9.848-3.574-11.846 1.478-1.478 3.824.215 3.824 2.76 0 1.329.607 1.623 2.576 1.246 2.211-.422 2.483-.863 1.922-3.111-1.512-6.058-7.497-8.12-11.614-4.003m15.909 16.385-.293 18.501 2.25-.001L101 205v-18.5c0-17.699-.085-18.5-1.957-18.5-1.862 0-1.972.901-2.25 18.501M108 170c-1.817 1.817-2 3.333-2 16.566 0 8.058.459 15.423 1.027 16.485.855 1.597 2.033 1.892 7 1.756l5.973-.165V187h-3.5c-2.833 0-3.5.381-3.5 2 0 1.1.475 2 1.055 2 .634 0 .933 1.89.75 4.741-.34 5.288-3.034 7.268-4.162 3.057-.799-2.981-.799-20.615 0-23.596.995-3.714 3.804-2.327 4.167 2.056.272 3.271.634 3.742 2.88 3.742 2.458 0 2.548-.198 2.058-4.541-.281-2.497-1.309-5.422-2.285-6.5-2.288-2.528-6.914-2.508-9.463.041m16 16.5V205h6c5.733 0 6-.111 6-2.5 0-2.197-.43-2.5-3.552-2.5h-3.553l.303-5.25c.263-4.574.592-5.291 2.552-5.57 1.629-.231 2.25-.99 2.25-2.75 0-1.939-.516-2.43-2.552-2.43-2.451 0-2.54-.209-2.25-5.25.294-5.12.383-5.258 3.552-5.563 2.692-.26 3.25-.732 3.25-2.75 0-2.312-.308-2.437-6-2.437h-6v18.5m16 0V205h5l.1-12.25c.107-13.043.619-12.418 2.87 3.5.68 4.813 1.594 8.75 2.031 8.75.822 0 2.457-8.263 3.61-18.25 1.122-9.709 2.389-6.393 2.389 6.25 0 11.333.111 12 2 12 1.928 0 2-.667 2-18.5V168h-2.917c-2.673 0-3.001.398-3.918 4.75a188.098 188.098 0 0 0-1.708 9.575c-.901 6.156-1.929 4.996-3.387-3.825-1.693-10.244-1.818-10.5-5.137-10.5H140v18.5m28.638-15.75c-.286 1.512-1.259 7.7-2.161 13.75-.903 6.05-1.993 13.137-2.423 15.75-.74 4.498-.661 4.75 1.483 4.75 1.792 0 2.449-.782 3.151-3.75.724-3.059 1.334-3.75 3.312-3.75 1.978 0 2.588.691 3.312 3.75.702 2.968 1.359 3.75 3.151 3.75 2.144 0 2.223-.252 1.483-4.75-.43-2.613-1.52-9.7-2.423-15.75-2.592-17.377-2.298-16.5-5.523-16.5-2.306 0-2.939.517-3.362 2.75m2.351 11c-.006 1.512-.29 4.438-.631 6.5-.564 3.411-.415 3.75 1.642 3.75s2.206-.339 1.642-3.75c-.341-2.062-.625-4.988-.631-6.5-.006-1.512-.461-2.75-1.011-2.75-.55 0-1.005 1.238-1.011 2.75" fill="#1976D2" fill-rule="evenodd"/><path fill-opacity=".409" d="M60.749 108.725c-2.249 2.485-2.248 7.532.001 9.485.962.836 5.125 2.511 9.25 3.722 10.019 2.942 31.079 10.855 43.895 16.494 5.717 2.516 10.779 4.574 11.25 4.574.47 0 .855-1.061.855-2.357 0-4.678-26.017-21.746-43.814-28.743-12.922-5.08-18.91-5.967-21.437-3.175m-34.678 20.05c-3.969 3.969-4.26 9.65-.692 13.499 2.717 2.933 4.157 3.192 26.121 4.706 8.25.569 18.6 1.521 23 2.116 13.672 1.848 44.004 6.901 47.581 7.927 1.873.537 3.521.977 3.662.977.142 0 .257-1.523.257-3.385 0-4.074-.711-4.589-15-10.857-23.828-10.453-46.369-16.028-70.347-17.397l-11.51-.658-3.072 3.072" fill="#1976D2" fill-rule="evenodd"/></svg>